<svg version="1.1" id="Layer_1" xmlns="http://www.w3.org/2000/svg" xmlns:xlink="http://www.w3.org/1999/xlink" x="0px" y="0px"
	 width="100%" viewBox="0 0 732 732" enable-background="new 0 0 732 732" xml:space="preserve">
<path fill="#F6F5F6" opacity="1.000000" stroke="none" 
	d="
M1.244630,404.294250 
	C1.000000,379.312439 1.000000,354.624878 1.000000,329.468658 
	C2.990873,326.305115 1.737755,323.180969 2.113731,320.273529 
	C6.779792,284.190491 16.266413,249.495560 31.258621,216.284302 
	C47.009846,181.391617 67.605301,149.744644 93.143257,121.221672 
	C120.968597,90.143967 153.195221,64.738480 189.674088,44.556969 
	C228.455368,23.101683 269.861542,9.642194 313.575592,2.970702 
	C318.496277,2.219721 323.508148,2.389245 328.706726,1.244469 
	C353.687561,1.000000 378.375122,1.000000 403.531342,1.000000 
	C410.221069,2.968438 416.758759,2.487623 423.125305,3.461812 
	C457.964752,8.792810 491.249817,19.059326 523.118896,34.048672 
	C551.761841,47.520691 578.313416,64.244385 602.555237,84.637550 
	C637.461365,114.001884 666.083130,148.507126 688.293762,188.380386 
	C709.270508,226.038422 722.851929,266.199646 729.885437,308.661652 
	C731.244873,316.869141 731.646973,325.160858 732.755371,333.705811 
	C733.000000,355.687561 733.000000,377.375122 733.000000,399.531342 
	C730.873413,403.337219 732.007690,407.151489 731.624634,410.704895 
	C727.879150,445.448669 718.670837,478.709351 705.107544,510.837006 
	C690.409302,545.653381 670.684204,577.404541 646.086609,606.025269 
	C616.253296,640.738037 581.161743,669.001892 540.773193,690.726685 
	C502.037537,711.562500 460.866791,724.689453 417.433441,731.038452 
	C411.840790,731.855957 406.163940,731.570923 400.294617,732.755249 
	C378.312439,733.000000 356.624878,733.000000 334.468658,733.000000 
	C330.311493,730.864563 326.189056,732.065735 322.296265,731.623047 
	C285.736176,727.465698 250.792130,717.627625 217.201050,702.691833 
	C185.781601,688.721558 156.875931,670.770203 130.566162,648.647888 
	C93.663544,617.618774 63.961346,580.818970 41.466251,538.121460 
	C22.092224,501.348022 9.442784,462.448578 3.126301,421.417938 
	C2.265772,415.828094 2.469542,410.154694 1.244630,404.294250 
z"/>
<path fill="#FFFFFF" opacity="1.000000" stroke="none" 
	d="
M400.468658,733.000000 
	C400.275513,730.884888 401.880310,731.120300 403.387665,730.985962 
	C438.497223,727.857361 472.232697,719.207153 504.914368,706.082397 
	C537.062439,693.171936 566.591248,675.747681 593.765686,654.425232 
	C613.267151,639.123291 630.840942,621.742676 646.914856,602.786682 
	C665.055603,581.393311 680.482910,558.213928 693.190491,533.320984 
	C708.512451,503.306671 719.589905,471.685944 725.964661,438.525787 
	C728.274902,426.508392 730.350098,414.438141 731.026062,402.183685 
	C731.074646,401.302979 731.358276,400.569366 732.612793,400.091187 
	C733.000000,509.594604 732.975891,619.189209 733.104065,728.783691 
	C733.108337,732.473450 732.241333,733.094177 728.721619,733.090576 
	C619.460266,732.979858 510.198792,733.000000 400.468658,733.000000 
z"/>
<path fill="#FFFFFF" opacity="1.000000" stroke="none" 
	d="
M733.000000,333.531342 
	C730.885559,333.724640 731.104126,332.123138 730.988037,330.612915 
	C729.139099,306.566681 724.075073,283.153076 717.170288,260.091125 
	C710.620483,238.215057 702.054871,217.157440 691.440308,196.957596 
	C679.673218,174.564514 665.619812,153.691147 649.683533,134.016525 
	C642.457214,125.095085 634.739441,116.592033 626.696960,108.536446 
	C613.121094,94.938293 598.604126,82.273254 582.979065,70.953888 
	C563.940186,57.161446 543.787354,45.294304 522.540710,35.264641 
	C494.779205,22.159548 465.812988,12.725819 435.648193,7.041564 
	C425.901764,5.204945 416.121796,3.475903 406.182465,2.973442 
	C405.301788,2.928920 404.568909,2.641180 404.091125,1.387146 
	C512.261719,1.000000 620.523376,1.024476 728.784973,0.895661 
	C732.478149,0.891266 733.093872,1.763322 733.090332,5.279583 
	C732.979980,114.540535 733.000000,223.801620 733.000000,333.531342 
z"/>
<path fill="#FFFFFF" opacity="1.000000" stroke="none" 
	d="
M1.000000,404.468658 
	C3.119466,404.271667 2.884453,405.878632 3.013667,407.385620 
	C4.702746,427.084869 8.771448,446.335785 13.962286,465.377045 
	C20.054344,487.724213 28.252193,509.314301 38.636875,529.968384 
	C50.067444,552.702576 63.585632,574.182190 79.506737,594.139954 
	C88.527573,605.447937 97.895035,616.470276 108.217331,626.519043 
	C132.324387,649.987183 158.747711,670.460388 188.344742,686.765625 
	C218.080490,703.147278 249.289536,715.568176 282.355896,723.210022 
	C298.479004,726.936157 314.716461,730.147522 331.310944,731.008301 
	C332.327942,731.061035 333.326660,731.101990 333.907532,732.611084 
	C224.405823,733.000000 114.811615,732.976013 5.217595,733.103760 
	C1.531546,733.108093 0.905443,732.246338 0.909079,728.722961 
	C1.020443,620.794495 1.000000,512.865906 1.000000,404.468658 
z"/>
<path fill="#FFFFFF" opacity="1.000000" stroke="none" 
	d="
M328.531342,1.000000 
	C326.504852,5.172695 322.014404,3.298381 318.716797,3.718953 
	C300.757599,6.009461 283.141724,9.819704 265.761047,14.673278 
	C242.499466,21.169088 220.093948,30.017870 198.685257,41.201054 
	C174.050964,54.069172 151.016113,69.325958 129.848312,87.459740 
	C119.856041,96.019791 110.187820,104.876434 101.183548,114.414131 
	C81.649223,135.105682 64.597649,157.677994 50.260723,182.324158 
	C36.664688,205.696686 25.642393,230.172821 17.559315,255.950790 
	C11.208402,276.204681 6.643007,296.862335 3.769481,317.924957 
	C3.280536,321.508881 4.305207,325.557800 1.387135,328.908875 
	C1.000000,221.072037 1.024471,113.144051 0.895918,5.216244 
	C0.891523,1.526542 1.758643,0.905741 5.278304,0.909373 
	C112.873009,1.020414 220.467865,1.000000 328.531342,1.000000 
z"/>
<path fill="#222254" opacity="1.000000" stroke="none" 
	d="
M136.999878,404.703705 
	C121.007683,404.703705 105.515465,404.719818 90.023300,404.698914 
	C76.024742,404.680054 67.999954,396.674164 67.998581,382.751495 
	C67.993927,335.608582 67.994637,288.465668 67.998207,241.322739 
	C67.999207,228.236053 75.042450,219.680466 88.050041,219.483963 
	C119.858353,219.003403 151.682785,219.097122 183.493195,219.522736 
	C194.141571,219.665222 201.471741,226.574539 202.968994,235.638748 
	C204.525238,245.059998 200.199448,253.566086 191.873856,257.552094 
	C188.779724,259.033447 185.511108,259.299805 182.149780,259.296204 
	C158.994812,259.271454 135.838837,259.390259 112.685699,259.182281 
	C108.629311,259.145813 107.795258,260.391541 107.812767,264.203430 
	C107.959732,296.186615 107.968361,328.171173 107.801811,360.154205 
	C107.781876,363.984467 108.865227,364.854462 112.543930,364.804413 
	C127.866714,364.596039 143.196747,364.556702 158.517746,364.822388 
	C162.662827,364.894318 163.625793,363.483429 163.362411,359.722412 
	C163.072189,355.578186 163.130966,351.389160 163.351212,347.236298 
	C163.509766,344.246979 162.665039,343.062103 159.475616,343.212128 
	C154.995178,343.422821 150.478226,343.330444 146.000610,343.022583 
	C138.210724,342.486938 133.056656,337.583252 132.320465,329.781677 
	C131.915649,325.491852 131.918243,321.104584 132.303299,316.812042 
	C133.020691,308.814270 138.926620,303.403900 146.934464,303.331696 
	C160.759720,303.207001 174.587769,303.202148 188.412933,303.330902 
	C197.336288,303.414032 203.207642,309.217499 203.248337,318.050415 
	C203.350403,340.205444 203.368774,362.361725 203.247650,384.516571 
	C203.182678,396.399475 194.681580,404.591034 182.477097,404.677948 
	C167.485397,404.784729 152.492355,404.703613 136.999878,404.703705 
z"/>
<path fill="#232255" opacity="1.000000" stroke="none" 
	d="
M211.792496,227.076202 
	C216.969376,220.658676 222.624771,218.729523 229.049042,220.930130 
	C235.519196,223.146439 239.050034,228.259338 238.852173,236.018082 
	C238.555359,247.656967 237.698654,259.284393 237.531509,270.923157 
	C237.237793,291.376953 240.047729,310.822021 256.531616,325.551605 
	C268.841766,336.551636 282.717773,340.411255 298.515411,334.889984 
	C307.701447,331.679504 311.970978,325.248840 312.079407,315.508881 
	C312.468323,280.572540 318.094696,246.663834 332.172821,214.487106 
	C345.408966,184.234680 364.183136,158.174286 391.018555,138.399841 
	C392.208374,137.523071 393.519318,136.804626 394.811340,136.079193 
	C395.002686,135.971756 395.402466,136.235474 396.031891,136.426361 
	C394.606171,139.535324 391.952118,141.567871 389.849548,143.959442 
	C368.480530,168.265930 356.847961,196.922714 350.794159,228.413742 
	C344.234863,262.534332 344.421844,296.956726 344.771362,331.413513 
	C345.048309,358.711212 345.727112,386.005249 346.299774,413.299377 
	C346.638367,429.435944 347.407288,445.559875 346.220886,461.704132 
	C343.558777,497.929871 332.791046,531.682312 315.500458,563.468079 
	C306.487366,580.037170 295.917419,595.551880 283.609436,609.863037 
	C282.062592,611.661682 282.041412,611.643494 278.982483,612.989136 
	C298.621460,579.612854 304.740662,542.969788 308.231415,505.590240 
	C311.439087,471.242126 311.884979,436.800659 312.100433,402.345917 
	C312.170227,391.185333 312.080109,380.021088 312.357300,368.865814 
	C312.469879,364.337158 311.282257,363.280365 306.743683,364.548737 
	C296.664856,367.365448 286.553986,369.647308 275.796204,368.026276 
	C243.012726,363.086365 212.650803,330.514862 209.922791,297.469452 
	C208.190109,276.480896 210.303436,255.536285 209.783173,234.574051 
	C209.721298,232.081375 210.192413,229.594238 211.792496,227.076202 
z"/>
<path fill="#222253" opacity="1.000000" stroke="none" 
	d="
M411.192078,214.385986 
	C433.640472,213.303055 455.637054,213.418747 478.144958,214.193588 
	C498.472717,216.486420 511.469818,230.510117 511.564056,250.669983 
	C511.794281,299.916809 511.649323,349.165161 511.628937,398.412903 
	C511.628174,400.239471 511.656342,402.083344 510.597290,404.184265 
	C502.841644,404.672913 495.357544,404.660828 487.885254,404.952118 
	C484.664917,405.077606 485.007690,403.229889 485.014740,401.148560 
	C485.071625,384.326691 485.094604,367.504639 485.100891,350.682648 
	C485.111847,321.367737 485.145935,292.052734 485.082092,262.737976 
	C485.057098,251.256256 480.726440,246.178009 469.615356,244.713013 
	C468.636658,244.861847 468.169373,245.048447 467.682800,245.152161 
	C459.721954,246.848694 459.715546,246.846817 459.715088,255.319412 
	C459.712433,301.870453 459.721893,348.421509 459.696411,394.972565 
	C459.694794,397.942535 460.085724,400.973755 458.570557,404.218140 
	C450.175323,404.674103 442.071136,404.750763 433.514709,404.714294 
	C430.533844,401.979980 431.332306,398.655182 431.328461,395.593903 
	C431.271088,350.040863 431.290283,304.487671 431.289551,258.934540 
	C431.289520,257.438263 431.292877,255.941971 431.288666,254.445709 
	C431.267426,246.940109 431.266846,246.940109 423.656372,244.443329 
	C409.382568,245.868332 405.284454,250.420364 405.283630,264.294678 
	C405.280975,309.379608 405.214203,354.464813 405.390900,399.549042 
	C405.408142,403.951141 404.357880,405.303345 399.919495,404.999420 
	C393.626465,404.568451 387.284668,404.849762 380.511597,404.712158 
	C378.068207,402.787506 378.389130,400.338501 378.387177,398.058258 
	C378.346039,349.593994 378.142395,301.128296 378.494904,252.666306 
	C378.596466,238.702026 383.852203,226.722183 396.078552,218.594070 
	C400.590942,215.594223 405.505585,214.617096 411.192078,214.385986 
z"/>
<path fill="#222255" opacity="1.000000" stroke="none" 
	d="
M559.762329,403.614960 
	C552.141968,398.437317 549.360901,391.826691 551.546692,384.704895 
	C553.837585,377.240204 559.931030,373.114655 568.779602,373.106842 
	C586.940308,373.090881 605.101746,373.022797 623.261169,373.173523 
	C626.611633,373.201324 627.873291,372.491760 627.802368,368.843292 
	C627.569275,356.851746 627.609192,344.851318 627.784119,332.857758 
	C627.831543,329.604401 626.935486,328.600250 623.596619,328.630096 
	C605.603882,328.790833 587.609070,328.715668 569.614929,328.702545 
	C557.130188,328.693451 551.011353,322.341400 551.066162,309.966553 
	C551.173035,285.808258 551.088806,261.649139 551.107056,237.490387 
	C551.115601,226.183578 557.372437,219.998703 568.748474,219.996796 
	C593.573669,219.992645 618.398926,219.985779 643.224121,220.000381 
	C652.994446,220.006134 659.941406,226.672607 659.897339,235.936127 
	C659.853638,245.114197 652.803711,251.858932 643.050537,251.884003 
	C624.390076,251.931946 605.728882,251.975906 587.069519,251.823959 
	C583.837402,251.797653 582.867004,252.616501 582.924316,255.924210 
	C583.129089,267.750122 583.153931,279.584747 582.917603,291.409485 
	C582.842041,295.189209 583.674316,296.457581 587.740173,296.399963 
	C605.230896,296.152008 622.727234,296.285889 640.221497,296.296783 
	C653.657104,296.305176 659.705261,302.372620 659.705566,315.808594 
	C659.706177,339.634155 659.712158,363.459686 659.703125,387.285248 
	C659.698730,398.865112 653.477417,405.230835 641.866577,405.263947 
	C617.541382,405.333344 593.215881,405.279297 568.890503,405.292175 
	C565.870117,405.293793 562.914612,405.008118 559.762329,403.614960 
z"/>
<path fill="#FDEF03" opacity="1.000000" stroke="none" 
	d="
M510.759644,404.626404 
	C510.310516,354.118408 510.330902,303.674774 510.274597,253.231201 
	C510.251770,232.781387 498.885040,218.780334 478.889099,214.392197 
	C492.007172,213.639282 504.947571,215.399246 516.841248,221.842880 
	C530.061340,229.005157 537.198425,239.910614 537.161987,255.353836 
	C537.048645,303.353485 537.055786,351.353821 537.227661,399.353088 
	C537.243530,403.797882 536.099976,405.098877 531.691467,404.841644 
	C524.880676,404.444244 518.031372,404.707611 510.759644,404.626404 
z"/>
<path fill="#FFF204" opacity="1.000000" stroke="none" 
	d="
M411.222687,214.216766 
	C393.884064,218.073975 383.490356,228.932526 380.513916,246.840027 
	C380.188873,248.795685 380.119141,250.812271 380.118378,252.800659 
	C380.099182,303.106323 380.105072,353.411987 380.083008,404.157623 
	C373.229279,404.646454 366.390106,404.503448 359.572449,404.821381 
	C355.915649,404.991882 355.175140,403.605255 355.188934,400.241180 
	C355.305817,371.745239 355.255707,343.248566 355.255707,314.752136 
	C355.255707,295.254578 355.495880,275.753174 355.183746,256.260620 
	C354.907227,238.991409 363.306427,227.518845 378.253510,220.407043 
	C388.470795,215.545685 399.484131,213.812790 411.222687,214.216766 
z"/>
<path fill="#F8EB10" opacity="1.000000" stroke="none" 
	d="
M458.710419,404.663452 
	C458.273193,353.546478 458.248230,302.495514 458.279358,251.444580 
	C458.284393,243.199570 457.091339,244.383591 465.332031,244.267883 
	C466.493530,244.251556 467.656433,244.333176 468.965271,244.539978 
	C469.001465,246.698105 468.795288,248.685654 468.794556,250.673264 
	C468.776672,299.482849 468.804749,348.292480 468.758392,397.102020 
	C468.750031,405.929626 470.108276,404.644531 461.139282,404.776001 
	C460.473663,404.785767 459.807343,404.746124 458.710419,404.663452 
z"/>
<path fill="#FFF207" opacity="1.000000" stroke="none" 
	d="
M416.238281,84.185303 
	C416.485992,86.225525 416.734314,87.875557 416.735474,89.525772 
	C416.758362,121.992203 416.749756,154.458664 416.759216,186.925125 
	C416.759796,188.928253 416.840637,190.944092 416.010468,192.819702 
	C414.586243,196.037491 411.866150,197.045319 408.634186,196.672699 
	C405.503418,196.311768 403.467468,194.500000 402.960480,191.282440 
	C402.806488,190.304962 402.874786,189.289352 402.874695,188.291199 
	C402.871246,154.825775 402.899170,121.360298 402.832947,87.895004 
	C402.825684,84.219330 403.568115,81.136070 407.418884,80.016914 
	C411.203857,78.916870 414.322662,80.001541 416.238281,84.185303 
z"/>
<path fill="#FFF207" opacity="1.000000" stroke="none" 
	d="
M270.752502,648.937012 
	C270.746857,651.921814 270.868896,654.426147 270.707550,656.911987 
	C270.427032,661.234131 268.050507,663.630676 263.673096,663.719299 
	C259.650391,663.800659 256.919189,661.134705 256.911316,656.745789 
	C256.849670,622.300293 256.862183,587.854553 256.898743,553.408936 
	C256.903198,549.222229 259.312958,546.967529 263.373260,546.629395 
	C267.439301,546.290833 270.232208,548.820190 270.705139,553.101440 
	C270.850494,554.417419 270.751495,555.761230 270.751556,557.092285 
	C270.752991,587.544250 270.752625,617.996216 270.752502,648.937012 
z"/>
<path fill="#FEF106" opacity="1.000000" stroke="none" 
	d="
M423.427582,244.426666 
	C433.103821,244.171265 433.103577,244.171265 433.103912,254.059998 
	C433.105499,303.946930 433.107208,353.833832 433.085693,404.160950 
	C432.065918,404.650177 431.052032,404.598389 430.075714,404.765717 
	C425.979736,405.467621 425.156982,403.572632 425.173279,399.768677 
	C425.387360,349.824066 425.462738,299.878815 425.480652,249.933685 
	C425.481293,248.070312 426.855774,245.412933 423.427582,244.426666 
z"/>
<path fill="#FFF201" opacity="1.000000" stroke="none" 
	d="
M254.001511,594.000000 
	C254.001511,610.142334 254.031754,625.784912 253.952576,641.426819 
	C253.945053,642.916382 255.034561,645.175903 253.001694,645.801880 
	C251.110733,646.384155 249.671356,644.596863 248.549591,643.156921 
	C246.635712,640.700134 245.996063,637.800720 245.996857,634.727051 
	C246.001923,615.090881 245.954285,595.454590 246.024429,575.818665 
	C246.048233,569.153748 248.105911,566.147095 254.001511,564.165344 
	C254.001511,574.088074 254.001511,583.794006 254.001511,594.000000 
z"/>
<path fill="#FFF201" opacity="1.000000" stroke="none" 
	d="
M419.717834,102.201813 
	C419.995758,100.379700 418.956055,98.431084 420.916534,97.857666 
	C422.526428,97.386772 423.664703,98.758301 424.645294,99.890511 
	C426.596405,102.143433 427.248413,104.877907 427.250244,107.769577 
	C427.263153,128.070679 427.249878,148.371780 427.241211,168.672882 
	C427.239807,171.955139 426.398651,174.955673 423.947205,177.265579 
	C423.018219,178.140930 421.916809,179.335403 420.488586,178.692398 
	C419.193420,178.109299 419.747986,176.639267 419.743286,175.561630 
	C419.701202,165.910294 419.718048,156.258682 419.717926,146.607162 
	C419.717712,131.963470 419.717773,117.319771 419.717834,102.201813 
z"/>
<path fill="#FFF209" opacity="1.000000" stroke="none" 
	d="
M429.866882,135.975296 
	C429.867340,133.341522 429.802307,131.185989 429.896576,129.037445 
	C429.942291,127.995522 429.325226,126.540909 430.902466,126.102280 
	C432.159912,125.752586 433.098328,126.666466 433.953186,127.428604 
	C437.918457,130.963699 437.925110,139.662842 433.952057,143.227081 
	C432.985748,144.093918 431.840759,145.261627 430.491302,144.588409 
	C429.324707,144.006424 429.944916,142.512497 429.889374,141.422974 
	C429.805176,139.771362 429.867065,138.112305 429.866882,135.975296 
z"/>
<path fill="#FFF202" opacity="1.000000" stroke="none" 
	d="
M238.577286,609.134644 
	C235.799118,603.029541 236.269440,597.452209 239.567398,594.490784 
	C240.406082,593.737671 241.281174,592.649780 242.566864,593.300415 
	C243.610504,593.828552 243.259079,595.038391 243.268005,595.975830 
	C243.304337,599.789734 243.344376,603.605652 243.253082,607.417664 
	C243.219879,608.804565 244.017349,610.775024 242.500519,611.438477 
	C241.060410,612.068420 239.854691,610.537842 238.577286,609.134644 
z"/>
</svg>